<?xml version="1.0" encoding="UTF-8" standalone="no"?>
<svg
   viewBox="0 0 24 24"
   version="1.1"
   id="svg4">
  <defs
     id="defs8" />
  <path
     d="M 20.069183,9.8169112 6.3117547,3.0319641 C 3.3019094,1.8995178 1.7055293,3.9896935 2.4973481,6.5588408 L 4.66,11.59 v 0 c 0.1100043,0.262265 0.1100043,0.557735 0,0.82 l -2.3040064,5.513216 c -0.5050819,1.972882 0.6043819,3.478097 2.423467,3.667841 0.468231,-0.01849 1.1415842,-0.163771 1.562095,-0.369763 L 20.276037,14.156341 c 1.51046,-1.396057 1.496174,-3.209515 -0.148828,-4.3679848 z M 19.45,12.89 5.5313503,19.876769 C 4.3997251,20.427786 3.3996175,19.297368 3.7687089,18.447966 L 6.1427894,13.11327 C 6.2498761,12.887042 6.3320053,12.77818 6.57,12.75 h 4.89 c 1.333333,0 1.333333,-1.5 0,-1.5 H 6.57 c -0.022348,-0.07483 -0.3377023,0.06383 -0.4298857,-0.300863 L 3.7066794,5.5842159 C 3.3952046,4.553326 4.6151255,3.7091298 5.45,4.11 l 14,7 c 0.725386,0.371626 0.725386,1.408374 0,1.78 z"
     id="path2" />
</svg>
